<?xml version="1.0" encoding="utf-8"?>
<!-- Generator: Adobe Illustrator 21.1.0, SVG Export Plug-In . SVG Version: 6.00 Build 0)  -->
<svg version="1.1" id="Слой_1" xmlns="http://www.w3.org/2000/svg" xmlns:xlink="http://www.w3.org/1999/xlink" x="0px" y="0px"
	 viewBox="0 0 202 117.3" style="enable-background:new 0 0 202 117.3;" xml:space="preserve">
<style type="text/css">
	.st0{fill:#FFFFFF;}
	.st1{clip-path:url(#SVGID_2_);fill:#FFFFFF;}
	.st2{clip-path:url(#SVGID_4_);fill:#FFFFFF;}
	.st3{clip-path:url(#SVGID_6_);fill:#FFFFFF;}
</style>
<rect width="202" height="117.3"/>
<polygon class="st0" points="143.3,60.3 157.1,60.3 157.1,55.1 143.3,55.1 143.3,44.3 158.5,44.3 158.5,39 137.4,39 137.4,76.9 
	158.8,76.9 158.8,71.6 143.3,71.6 "/>
<g>
	<defs>
		<rect id="SVGID_1_" x="-1019" width="1280" height="800"/>
	</defs>
	<clipPath id="SVGID_2_">
		<use xlink:href="#SVGID_1_"  style="overflow:visible;"/>
	</clipPath>
	<path class="st1" d="M168.1,44.8h-1.5v-2.3h1.5c1,0,1.4,0.4,1.4,1.1C169.5,44.4,169,44.8,168.1,44.8 M170.8,43.7
		c0-1.8-1.3-2.3-2.6-2.3h-2.8v7.2h1.2v-2.8h1.3l1.6,2.8h1.5l-1.7-2.9C170.1,45.5,170.8,44.8,170.8,43.7"/>
	<path class="st1" d="M167.9,50.6c-3,0-5.4-2.3-5.4-5.5c0-3,2.1-5.6,5.4-5.6c3,0,5.4,2.4,5.4,5.6C173.4,48.3,170.9,50.6,167.9,50.6
		 M167.9,38.2c-4,0-6.7,3.1-6.7,6.8c0,4,2.9,6.7,6.7,6.7c3.7,0,6.7-2.8,6.7-6.7C174.7,41.1,171.7,38.2,167.9,38.2"/>
</g>
<polygon class="st0" points="107.8,47.6 100.9,39 106.3,39 113.2,47.6 "/>
<g>
	<defs>
		<rect id="SVGID_3_" x="-1019" width="1280" height="800"/>
	</defs>
	<clipPath id="SVGID_4_">
		<use xlink:href="#SVGID_3_"  style="overflow:visible;"/>
	</clipPath>
	<path class="st2" d="M51.4,61.4h7.2c-0.1,5.2-0.3,7-2,8.8c-1.3,1.4-3.4,2.1-5.6,2.1c-2.2,0-4.3-0.7-5.6-2.1
		c-1.9-2.1-1.9-4.3-1.9-12.4c0-8,0-10.1,1.9-12.2c1.3-1.4,3.5-2.1,5.7-2.1c2.2,0,4.3,0.6,5.6,2.1c0.5,0.6,0.9,1.3,1.2,2.1h6.1
		c-0.4-2.4-1.4-4.2-3.1-5.9c-2.3-2.2-5.4-3.5-9.7-3.5c-4.3,0-7.5,1.4-9.8,3.5c-3.6,3.5-3.8,7.9-3.8,16.2c0,8.3,0.1,12.7,3.7,16.2
		c2.3,2.2,5.5,3.4,9.9,3.4c4.3,0,7.5-1.3,9.7-3.5c3.6-3.5,3.8-7.8,3.8-16.1v-1.8H51.4V61.4z"/>
	<path class="st2" d="M90.8,70.2c-1.3,1.4-3.4,2.1-5.6,2.1c-2.2,0-4.3-0.7-5.6-2.1c-2-2.1-2-4.3-2-12.3c0-8,0-10.1,2-12.2
		c1.3-1.4,3.4-2.1,5.6-2.1c2.2,0,4.3,0.7,5.6,2.1c2,2.1,2,4.3,2,12.2C92.7,65.9,92.7,68.1,90.8,70.2 M94.9,41.8
		c-2.3-2.2-5.4-3.5-9.7-3.5c-4.3,0-7.5,1.4-9.8,3.5c-3.6,3.5-3.8,7.9-3.8,16.2c0,8.3,0.1,12.7,3.7,16.2c2.3,2.2,5.5,3.4,9.9,3.4
		c4.3,0,7.5-1.3,9.7-3.5c3.6-3.5,3.8-7.7,3.8-16.1C98.7,49.6,98.5,45.2,94.9,41.8"/>
	<path class="st2" d="M126.1,59.3c2.5-1.9,4-4.9,4-8.6c0-3.8-1.6-7.2-4.1-9.1c-3.2-2.4-6.4-2.7-10.4-2.7h-4.7l4.2,5.2h1.1
		c3.1,0,4.7,0.5,6.1,1.7c1.3,1.2,1.8,2.9,1.8,4.8c0,1.8-0.6,3.5-1.8,4.7c-1.4,1.2-3.4,1.8-6.8,1.8h-8.3L123,76.9h7.1l-12.2-15.1
		C121.3,61.6,123.7,61.1,126.1,59.3"/>
	<path class="st2" d="M138.7,89.2l-1-4.1c0-0.1-0.1-0.4-0.1-0.5h0c0,0.1-0.1,0.4-0.1,0.5l-1,4.1h-1l-1.6-6.2h1l0.9,4.3
		c0,0.1,0.1,0.4,0.1,0.6h0c0-0.1,0.1-0.4,0.1-0.6l1-4.3h1l1,4.3c0,0.1,0.1,0.4,0.1,0.6h0c0-0.1,0.1-0.4,0.1-0.6l0.9-4.3h1l-1.6,6.2
		H138.7z"/>
</g>
<polygon class="st0" points="142.9,83 146.4,83 146.4,83.9 143.9,83.9 143.9,85.6 146.1,85.6 146.1,86.5 143.9,86.5 143.9,88.3 
	146.4,88.3 146.4,89.2 142.9,89.2 "/>
<g>
	<defs>
		<rect id="SVGID_5_" x="-1019" width="1280" height="800"/>
	</defs>
	<clipPath id="SVGID_6_">
		<use xlink:href="#SVGID_5_"  style="overflow:visible;"/>
	</clipPath>
	<path class="st3" d="M149.7,86.6h1.5l-0.6-1.9c0-0.1-0.1-0.4-0.1-0.5h0c0,0.1-0.1,0.4-0.1,0.5L149.7,86.6z M151.4,87.4h-2l-0.6,1.8
		h-1l2.1-6.2h1l2.1,6.2h-1L151.4,87.4z"/>
	<path class="st3" d="M155.7,83.8V86h0.9c0.5,0,0.8-0.1,1-0.3c0.2-0.2,0.3-0.5,0.3-0.8c0-0.3-0.1-0.6-0.3-0.8
		c-0.2-0.2-0.5-0.3-1-0.3H155.7z M156.7,86.8h-1v2.4h-1V83c0.2,0,1.2,0,1.7,0c0.8,0,1.4,0.1,1.9,0.5c0.4,0.3,0.6,0.8,0.6,1.5
		c0,0.6-0.2,1.1-0.6,1.4c-0.2,0.2-0.4,0.3-0.6,0.3l1.5,2.5H158L156.7,86.8z"/>
</g>
</svg>
